<svg width="688" height="580" viewBox="0 0 688 580" fill="none" xmlns="http://www.w3.org/2000/svg">
<path opacity="0.4" d="M624.608 31.4101C479.832 -37.4825 415.97 150.909 316.139 181.906C216.395 227.253 120.216 174.176 60.8292 219.674C-33.3055 291.794 8.01124 417.963 68.2746 471.05C154.695 547.18 308.272 519.78 467.013 437.462C665.895 334.328 751.551 91.8174 624.608 31.4101Z" fill="#98C3E8"/>
<path opacity="0.2" d="M143.5 106.5C148.5 119 133.5 138.5 112 145C93.5002 150.593 75.5002 150 70.5002 137C66.077 125.5 80.0002 113 96.0002 106.5C112 100 138.5 94 143.5 106.5Z" fill="#98C3E8"/>
<path opacity="0.2" d="M307 81C303.109 71.0604 316.816 47.8658 333.803 42.7985C348.419 38.4383 362.111 28.1636 366 38.5C369.44 47.6436 358.909 68.3246 346.26 73.415C333.612 78.5053 310.891 90.9395 307 81Z" fill="#98C3E8"/>
<path opacity="0.2" d="M295.793 573.215C291.901 563.276 303.816 547.866 320.802 542.799C335.419 538.438 349.615 538.985 353.504 549.321C356.944 558.465 345.909 568.325 333.26 573.415C320.612 578.505 299.684 583.155 295.793 573.215Z" fill="#98C3E8"/>
<path opacity="0.2" d="M471.573 522.55C463.478 503.52 489.279 461.235 524.573 451.55C554.942 443.216 603.982 460.26 612.073 480.05C619.23 497.555 572.353 494.66 546.074 504.393C519.795 514.126 479.667 541.579 471.573 522.55Z" fill="#98C3E8"/>
</svg>
